<mxfile host="app.diagrams.net" modified="2023-10-17T16:50:29.103Z" agent="Mozilla/5.0 (Windows NT 10.0; Win64; x64) AppleWebKit/537.36 (KHTML, like Gecko) Chrome/117.0.0.0 Safari/537.36" etag="2Mk-IRlN0v1L1T3QFb6E" version="22.0.4" type="google">
  <diagram name="Página-1" id="oKIlooJLRSVnscNaMvM3">
    <mxGraphModel grid="0" page="0" gridSize="10" guides="1" tooltips="1" connect="1" arrows="1" fold="1" pageScale="1" pageWidth="827" pageHeight="1169" math="0" shadow="0">
      <root>
        <mxCell id="0" />
        <mxCell id="1" parent="0" />
        <mxCell id="y4hi9QcMBvdxDgGlhQlw-16" value="" style="edgeStyle=orthogonalEdgeStyle;rounded=0;orthogonalLoop=1;jettySize=auto;html=1;" edge="1" parent="1" source="y4hi9QcMBvdxDgGlhQlw-18" target="y4hi9QcMBvdxDgGlhQlw-20">
          <mxGeometry relative="1" as="geometry" />
        </mxCell>
        <mxCell id="y4hi9QcMBvdxDgGlhQlw-17" value="Paciente" style="edgeLabel;html=1;align=center;verticalAlign=middle;resizable=0;points=[];" connectable="0" vertex="1" parent="y4hi9QcMBvdxDgGlhQlw-16">
          <mxGeometry x="-0.1556" y="1" relative="1" as="geometry">
            <mxPoint as="offset" />
          </mxGeometry>
        </mxCell>
        <mxCell id="y4hi9QcMBvdxDgGlhQlw-18" value="Inicio" style="ellipse;whiteSpace=wrap;html=1;" vertex="1" parent="1">
          <mxGeometry x="-292" y="85" width="120" height="80" as="geometry" />
        </mxCell>
        <mxCell id="y4hi9QcMBvdxDgGlhQlw-19" value="" style="edgeStyle=orthogonalEdgeStyle;rounded=0;orthogonalLoop=1;jettySize=auto;html=1;" edge="1" parent="1" source="y4hi9QcMBvdxDgGlhQlw-20" target="y4hi9QcMBvdxDgGlhQlw-22">
          <mxGeometry relative="1" as="geometry" />
        </mxCell>
        <mxCell id="y4hi9QcMBvdxDgGlhQlw-20" value="Inicia Sesión" style="whiteSpace=wrap;html=1;" vertex="1" parent="1">
          <mxGeometry x="-292" y="255" width="120" height="60" as="geometry" />
        </mxCell>
        <mxCell id="y4hi9QcMBvdxDgGlhQlw-21" value="" style="edgeStyle=orthogonalEdgeStyle;rounded=0;orthogonalLoop=1;jettySize=auto;html=1;" edge="1" parent="1" source="y4hi9QcMBvdxDgGlhQlw-22" target="y4hi9QcMBvdxDgGlhQlw-25">
          <mxGeometry relative="1" as="geometry" />
        </mxCell>
        <mxCell id="y4hi9QcMBvdxDgGlhQlw-22" value="Acceder a la sección de documentos medicos" style="whiteSpace=wrap;html=1;" vertex="1" parent="1">
          <mxGeometry x="-122" y="255" width="120" height="60" as="geometry" />
        </mxCell>
        <mxCell id="y4hi9QcMBvdxDgGlhQlw-23" value="" style="edgeStyle=orthogonalEdgeStyle;rounded=0;orthogonalLoop=1;jettySize=auto;html=1;" edge="1" parent="1" source="y4hi9QcMBvdxDgGlhQlw-25" target="y4hi9QcMBvdxDgGlhQlw-27">
          <mxGeometry relative="1" as="geometry" />
        </mxCell>
        <mxCell id="y4hi9QcMBvdxDgGlhQlw-24" value="" style="edgeStyle=orthogonalEdgeStyle;rounded=0;orthogonalLoop=1;jettySize=auto;html=1;" edge="1" parent="1" source="y4hi9QcMBvdxDgGlhQlw-25" target="y4hi9QcMBvdxDgGlhQlw-29">
          <mxGeometry relative="1" as="geometry" />
        </mxCell>
        <mxCell id="y4hi9QcMBvdxDgGlhQlw-25" value="¿Hay registro de documentos?" style="rhombus;whiteSpace=wrap;html=1;" vertex="1" parent="1">
          <mxGeometry x="98" y="245" width="80" height="80" as="geometry" />
        </mxCell>
        <mxCell id="y4hi9QcMBvdxDgGlhQlw-26" style="edgeStyle=orthogonalEdgeStyle;rounded=0;orthogonalLoop=1;jettySize=auto;html=1;" edge="1" parent="1" source="y4hi9QcMBvdxDgGlhQlw-27" target="y4hi9QcMBvdxDgGlhQlw-30">
          <mxGeometry relative="1" as="geometry" />
        </mxCell>
        <mxCell id="y4hi9QcMBvdxDgGlhQlw-27" value="Muestra los registros de documentos" style="whiteSpace=wrap;html=1;" vertex="1" parent="1">
          <mxGeometry x="238" y="255" width="120" height="60" as="geometry" />
        </mxCell>
        <mxCell id="y4hi9QcMBvdxDgGlhQlw-28" value="" style="edgeStyle=orthogonalEdgeStyle;rounded=0;orthogonalLoop=1;jettySize=auto;html=1;entryX=0;entryY=0.5;entryDx=0;entryDy=0;" edge="1" parent="1" source="y4hi9QcMBvdxDgGlhQlw-29" target="y4hi9QcMBvdxDgGlhQlw-30">
          <mxGeometry relative="1" as="geometry">
            <mxPoint x="298" y="445" as="targetPoint" />
          </mxGeometry>
        </mxCell>
        <mxCell id="y4hi9QcMBvdxDgGlhQlw-29" value="Muestra que existen registros" style="whiteSpace=wrap;html=1;" vertex="1" parent="1">
          <mxGeometry x="78" y="415" width="120" height="60" as="geometry" />
        </mxCell>
        <mxCell id="y4hi9QcMBvdxDgGlhQlw-30" value="Fin" style="ellipse;whiteSpace=wrap;html=1;" vertex="1" parent="1">
          <mxGeometry x="238" y="405" width="120" height="80" as="geometry" />
        </mxCell>
      </root>
    </mxGraphModel>
  </diagram>
</mxfile>
